<svg xmlns="http://www.w3.org/2000/svg" id="logo" viewBox="0 0 896 219"><defs><style>.cls-1{stroke:#fff;stroke-width:3px}.cls-1,.cls-3,.cls-4,.cls-5,.cls-6{stroke-miterlimit:10}.cls-1,.cls-4,.cls-5,.cls-6{fill:none}.cls-3,.cls-5{stroke:#000}.cls-4,.cls-6{stroke:#000001;stroke-width:5px}.cls-5{stroke-width:4px}.cls-5,.cls-6{stroke-linecap:round}</style></defs><path d="M155.13 63.27c-8.96-13.44-10.45-16.43-24.71-17.41-14.25-.98-23.08 17.41-23.08 17.41L65.82 169.86l31.36 9.9 10.57-28.45a4.32 4.32 0 0 1 4.19-2.81l37.85 1.26c2.32.08 4.36 1.57 5.12 3.76l9.18 26.23 31.98-9.9S164.09 76.7 155.13 63.26Zm-38.83 56.75 13.44-37.34 14.8 37.34h-28.25ZM237.27 99.11c4.48-7.47 8.96-10.45 8.96-10.45 14.93-13.44 25.69-5.97 25.69-5.97s10.16 7.47 7.04 18.36-16.3 10.02-16.3 10.02l-8.02 1.73c-12.5 3.22-14.38 17.09-14.38 17.09v46.9l-32.99.3V82.7h30v16.43ZM359.73 146.91l7.47 22.4c-14.93 7.47-17.92 7.47-23.9 8.96-5.97 1.49-23.9 1.49-32.86-2.99s-16.43-10.45-22.4-20.91c-5.97-10.45-4.48-26.88-4.48-26.88s0-16.43 6.75-26.45 21.63-16.87 21.63-16.87 13.44-5.97 29.87-2.99c16.43 2.99 22.4 13.44 22.4 13.44s4.48 8.96-1.49 14.93-11.95 4.48-17.92 1.49-6.13-4.48-13.52-2.99-10.38 5.97-11.87 10.45-2.99 14.93-1.49 19.42c1.49 4.48 5.97 13.44 17.92 14.93s23.9-5.97 23.9-5.97ZM791.77 155.87l7.47 22.4c-14.93 7.47-17.92 7.47-23.9 8.96-5.97 1.49-23.9 1.49-32.86-2.99s-16.43-10.45-22.4-20.91c-5.97-10.45-4.48-26.88-4.48-26.88s0-16.43 6.75-26.45 21.63-16.87 21.63-16.87 13.44-5.97 29.87-2.99c16.43 2.99 22.4 13.44 22.4 13.44s4.48 8.96-1.49 14.93-11.95 4.48-17.92 1.49-6.13-4.48-13.52-2.99-10.38 5.97-11.87 10.45-2.99 14.93-1.49 19.42c1.49 4.48 5.97 13.44 17.92 14.93s23.9-5.97 23.9-5.97ZM379.15 57.3v119.78h33.1v-51.52s-1.78-15.98 13.92-17.47c15.71-1.49 12.72 14.93 12.72 14.93l.23 54.06h33.14v-65.93s.98-25.47-26.4-30.53c-27.87-2.41-33.85 11.03-33.85 11.03l-.24-34.35s.24-13.44-16.19-14.93-16.43 14.93-16.43 14.93ZM486.68 82.69h32.86v94.09h-32.86zM488.17 70.74h29.21l2.16-3.11V52.91s-2.99-13.57-15.68-12.8-14.19 8.94-15.68 12.32 0 18.32 0 18.32ZM544.92 61.78h33.42v20.91h14.16s10.67 0 12.16 11.95-12.64 15.04-12.64 15.04h-13.44l-.8 29.77s1.49 8.96 5.97 11.95 16.67 0 16.67 0l1.68 25.69s-13.76 3.34-27.26 1.52-28.43-13.77-28.43-30.19-1.49-38.73-1.49-38.73h-14.11V82.71h14.11V61.8ZM819.15 70.74h33.42v20.91h14.16s10.67 0 12.16 11.95-12.64 15.04-12.64 15.04h-13.44l-.8 29.77s1.49 8.96 5.97 11.95 16.67 0 16.67 0l1.68 25.69s-13.76 3.34-27.26 1.52-28.43-13.77-28.43-30.19-1.49-38.73-1.49-38.73h-14.11V91.67h14.11V70.76Z" class="cls-3"/><path d="M699.51 71.79a441 441 0 0 1 37.76-41.43M685.48 62.13c2.66-14.7 5.32-29.4 7.98-44.11M707.96 81.11c13.68-6.02 27.35-12.03 41.03-18.05" class="cls-5"/><path d="m12.5 134.21 5.97-13.44 34.35 20.91" class="cls-4"/><path d="m18.47 120.77 5.98-13.44" class="cls-6"/><path d="M62.53 118.53 46.1 108.08s-10.45-26.69 6.72-20.81l17.17 10.36" class="cls-4"/><path d="m25.94 95.38 20.16 12.69M62.67 73.37l5.97-14.93c5-10.51-34.61-3.43-9.1 21.26 15.89 15.39 21.58-18.11 20.91-16.43" class="cls-6"/><path d="M663.86 193.15c-13.36-9.91-26.84-19.88-41.27-28.15-6.06-11.82-8.52-25.46-6.97-38.66.51-4.36 1.48-8.76 3.8-12.48 2.38-3.83 6.01-6.68 9.56-9.45 12.3-9.59 24.37-21.05 36.67-30.65-10.9 9.02-23.21 23.33-26.65 37.05-5.4 21.54-5.28 44.97 13.4 67.15 5.05 6 13.78 18.45 21.55 19.5 8.75 1.19 15.47-7.53 19.09-15.59 13.77-30.64 12.17-67.76-4.19-97.1-2.39-4.29-5.22-8.56-9.41-11.14-4.19-2.57-10.05-3-13.78.2" style="stroke-width:3px;stroke-miterlimit:10;fill:none;stroke:#000"/><path d="M652.7 97.69c-7.69 15.58-11.45 31.89-6.93 49.91 2.49 11.74 20.51 50.33 36.64 38.87 19.05-15.91 18.35-75.15 6.06-95.26-4.01-6.56-13.77-18.34-22.59-12.91-2.95 1.81-4.9 4.84-6.71 7.79-2.36 3.83-4.53 7.7-6.46 11.61Z" style="stroke-width:0"/><path d="M644.79 117.7c3.36.84 16.18 4.25 19.62 4.66 3.5.42 5.53 1.87 6.91 5.22 2.63 6.38 2.16 13.95-1.22 19.97-2.66 4.73-16.38 7.08-20.88 9.57" class="cls-1"/><path d="M663.96 124.09a18.8 18.8 0 0 0-3.11 12.43c.46 4.33 2.49 8.49 5.63 11.51" class="cls-1"/></svg>